<svg xmlns="http://www.w3.org/2000/svg" viewBox="118 290 353 312" width="353" height="312" role="img" aria-label="FlySales">
  <path d="M 258,480 256,480 230,507 230,508 218,520 218,521 209,530 209,531 197,543 197,544 186,555 186,556 159,585 159,587 161,587 175,580 177,578 219,557 221,555 242,545 244,543 248,541 250,541 254,538 270,530 272,530 272,527 271,526 271,523 270,522 269,516 267,512 266,505 265,504 265,502 263,498 263,495 262,494 261,488 260,487 260,485 259,484 Z M 465,296 235,383 124,429 260,462 443,313 444,316 281,470 311,595 314,596 Z" fill="#A2FF00" fill-rule="evenodd" clip-rule="evenodd"/>
</svg>
